Coordinates
version=1
nRows=29
nColumns=24
inDegrees=yes

Units are S.I. units (second, meters, Newtons, ...)
Angles are in degrees.

endheader
time	pelvis_tilt	pelvis_list	pelvis_rotation	pelvis_tx	pelvis_ty	pelvis_tz	hip_flexion_r	hip_adduction_r	hip_rotation_r	knee_angle_r	ankle_angle_r	subtalar_angle_r	mtp_angle_r	hip_flexion_l	hip_adduction_l	hip_rotation_l	knee_angle_l	ankle_angle_l	subtalar_angle_l	mtp_angle_l	lumbar_extension	lumbar_bending	lumbar_rotation
      4.21000000	     -8.29595026	      3.94308274	    -12.68955763	     -2.24756069	     -0.02798123	      0.44213954	     -6.91379366	     -2.90539123	     10.16831146	    -14.08460195	      5.97222123	      8.34175521	     10.31383991	     28.47662678	     -1.93667992	     -7.04327346	     -6.01408263	     -4.61455550	      7.01395965	     13.44726064	      4.74033487	     -2.16555113	     14.17378266
      4.21500000	     -8.32111896	      4.08405056	    -12.78489544	     -2.24037115	     -0.02860188	      0.44195152	     -6.89199629	     -3.17263605	     10.01695735	    -14.85172224	      5.67616723	      8.87022861	     10.87002845	     28.59915600	     -1.75709529	     -6.92333353	     -6.86765745	     -4.88504108	      6.96720785	     13.49883238	      4.88502372	     -2.40305017	     14.32641405
      4.22000000	     -8.35931626	      4.24548347	    -12.84914464	     -2.23311509	     -0.02920599	      0.44172899	     -6.82294974	     -3.45441873	      9.83630287	    -15.67224914	      5.31538678	      9.37882447	     11.48067616	     28.73499959	     -1.54113719	     -6.81766803	     -7.73770815	     -5.32069690	      6.87000937	     13.56036119	      5.05214062	     -2.66489566	     14.46290997
      4.22500000	     -8.40719269	      4.42543671	    -12.89062838	     -2.22582100	     -0.02977150	      0.44146689	     -6.70213056	     -3.75011011	      9.63936780	    -16.55388134	      4.87532611	      9.86799494	     12.14474487	     28.87520968	     -1.29538230	     -6.72825106	     -8.59720108	     -5.92601619	      6.72447783	     13.62056694	      5.23392366	     -2.94638310	     14.59650018
      4.23000000	     -8.46192057	      4.58833238	    -12.88734988	     -2.21855777	     -0.03028157	      0.44111416	     -6.53801348	     -4.02300622	      9.39630835	    -17.48491325	      4.32417451	     10.33493804	     12.95548311	     29.02263462	     -1.04122534	     -6.57856164	     -9.44284289	     -6.71836743	      6.45414950	     13.69913022	      5.40413526	     -3.21198035	     14.69868348
      4.23500000	     -8.52297602	      4.84972401	    -12.89805423	     -2.21118764	     -0.03071469	      0.44085062	     -6.29994427	     -4.38852015	      9.19316223	    -18.50111012	      3.69412883	     10.73936059	     13.67784067	     29.15633468	     -0.70961241	     -6.54166370	    -10.22846476	     -7.58003092	      6.26370896	     13.68361398	      5.62244497	     -3.58601470	     14.81363821
      4.24000000	     -8.59692217	      5.09704221	    -12.84400519	     -2.20384319	     -0.03106746	      0.44044974	     -6.01846671	     -4.73665652	      8.92192523	    -19.55318063	      2.93341789	     11.16039251	     14.49999059	     29.32188983	     -0.35825791	     -6.47157702	    -11.02518280	     -8.52418159	      5.97127150	     13.57719599	      5.83334710	     -3.94130851	     14.94962145
      4.24500000	     -8.68181668	      5.36249844	    -12.81332669	     -2.19655898	     -0.03136013	      0.44007531	     -5.62921090	     -5.09930572	      8.64496161	    -20.72261156	      2.05506408	     11.54864802	     15.53065908	     29.47095596	      0.00274390	     -6.26922981	    -11.76894632	     -9.46579695	      5.50565162	     13.35191596	      6.05039932	     -4.31558516	     15.00494984
      4.25000000	     -8.75079937	      5.57418741	    -12.71774713	     -2.18936661	     -0.03154258	      0.43959209	     -5.23751622	     -5.39966441	      8.35911189	    -21.90659063	      0.97932882	     11.84141096	     16.75690234	     29.62004465	      0.35611205	     -5.94374086	    -12.55120342	    -10.36053310	      4.90739190	     12.97344017	      6.21028662	     -4.64172699	     15.05500552
      4.25500000	     -8.83257151	      5.91157648	    -12.63854699	     -2.18195909	     -0.03165486	      0.43923693	     -4.77061391	     -5.81638374	      8.13724334	    -23.16473633	     -0.21590697	     12.05758774	     17.72530354	     29.76338082	      0.81174271	     -5.79263452	    -13.29282598	    -11.08895070	      4.38695528	     12.44731013	      6.45011855	     -5.09982979	     15.12800043
      4.26000000	     -8.92849368	      6.14826355	    -12.54059801	     -2.17474977	     -0.03174382	      0.43872782	     -4.22105808	     -6.13070165	      7.87504696	    -24.50094371	     -1.57444969	     12.28540560	     19.04668834	     29.92790950	      1.20528462	     -5.41005064	    -14.09816123	    -11.64008491	      3.61014850	     11.63061266	      6.64268586	     -5.43624391	     15.18052975
      4.26500000	     -8.99842463	      6.33928203	    -12.40654401	     -2.16756329	     -0.03175769	      0.43822914	     -3.67841035	     -6.38329615	      7.65657962	    -25.85004893	     -3.14080534	     12.37210745	     20.55595544	     30.06334486	      1.57843519	     -5.00056318	    -14.95343739	    -11.88924050	      2.93462263	     10.68174447	      6.78331164	     -5.74689073	     15.19669286
      4.27000000	     -9.07418130	      6.56611556	    -12.30273843	     -2.16029862	     -0.03176328	      0.43777594	     -3.06074714	     -6.65949368	      7.51100339	    -27.28909590	     -4.81470013	     12.39742094	     21.85639554	     30.17742583	      1.97762512	     -4.70003767	    -15.78185648	    -11.90730960	      2.25325868	      9.73066492	      6.95156391	     -6.07371353	     15.24230253
      4.27500000	     -9.15557314	      6.77234687	    -12.17238672	     -2.15308226	     -0.03176626	      0.43733208	     -2.38634654	     -6.89125247	      7.39846369	    -28.79725889	     -6.60328674	     12.35070343	     23.15590529	     30.28554125	      2.37305494	     -4.37429427	    -16.62394107	    -11.70789518	      1.63413862	      8.76888868	      7.11211170	     -6.38855219	     15.25391701
      4.28000000	     -9.23148906	      6.97454767	    -12.04444102	     -2.14589934	     -0.03176058	      0.43692763	     -1.65837026	     -7.09727210	      7.34053330	    -30.38496604	     -8.46812061	     12.23071884	     24.31146853	     30.35938592	      2.76681760	     -4.07684472	    -17.43689124	    -11.33112730	      1.10589018	      7.91861196	      7.25966461	     -6.69872798	     15.26291131
      4.28500000	     -9.30074930	      7.16343696	    -11.90645553	     -2.13882557	     -0.03178310	      0.43652003	     -0.86866020	     -7.27017269	      7.29999369	    -32.07194979	    -10.33724447	     12.03945539	     25.36569105	     30.41051223	      3.15514095	     -3.79698799	    -18.23636319	    -10.77523260	      0.70451905	      7.18637166	      7.37741488	     -6.99277417	     15.24824840
      4.29000000	     -9.26278302	      7.44147640	    -11.77146818	     -2.13175795	     -0.03171478	      0.43625646	     -0.11111799	     -7.52891039	      7.26572755	    -33.90025638	    -12.12270706	     11.78876217	     25.75773447	     30.29446666	      3.63948385	     -3.61580861	    -18.88210928	    -10.27151596	      0.37582632	      6.93858800	      7.40152025	     -7.41837852	     15.20385363
      4.29500000	     -9.43788160	      7.59806473	    -11.62226391	     -2.12485359	     -0.03185064	      0.43584643	      0.91713105	     -7.60387124	      7.28881085	    -35.75285891	    -13.96504412	     11.43766851	     26.55739174	     30.39170233	      3.98684094	     -3.29935632	    -19.59435204	     -9.54729218	      0.08035049	      6.30775299	      7.60317375	     -7.64743552	     15.18163923
      4.30000000	     -9.46694799	      7.84927177	    -11.47029824	     -2.11801718	     -0.03186989	      0.43556809	      1.87091571	     -7.78493094	      7.26365154	    -37.72944042	    -15.65547848	     10.90077053	     26.80170402	     30.29280355	      4.43826802	     -3.11969767	    -20.16481935	     -8.85489019	     -0.05462961	      6.04299059	      7.65846303	     -8.01968264	     15.12518141
      4.30500000	     -9.53274188	      8.13581991	    -11.29653148	     -2.11125789	     -0.03197121	      0.43530616	      2.92896172	     -7.98183455	      7.20769510	    -39.79793058	    -17.18469885	     10.17818614	     26.79927809	     30.19832434	      4.92408274	     -2.90735805	    -20.65693698	     -8.15530654	     -0.13711559	      5.85359213	      7.75060311	     -8.42397978	     15.04901263
      4.31000000	     -9.54595504	      8.44911832	    -11.12396517	     -2.10455326	     -0.03200207	      0.43502584	      3.98592275	     -8.22042406	      7.09606983	    -41.91473615	    -18.63040568	      9.20089447	     26.50249865	     30.00396991	      5.44878593	     -2.77384991	    -21.03101098	     -7.55515625	     -0.28540523	      5.78392356	      7.78468747	     -8.85305877	     14.93707534
      4.31500000	     -9.58732565	      8.78104937	    -10.93509935	     -2.09795202	     -0.03208426	      0.43475341	      5.11949409	     -8.46350391	      6.95961227	    -44.07709367	    -19.91643247	      7.90590534	     25.97264768	     29.80886452	      5.99009238	     -2.60895416	    -21.33430335	     -6.97272914	     -0.39089405	      5.74711594	      7.83634246	     -9.29806585	     14.80577265
      4.32000000	     -9.62589250	      9.13020766	    -10.73718858	     -2.09140107	     -0.03216478	      0.43448172	      6.27911322	     -8.72426462	      6.79842203	    -46.24655310	    -21.04109900	      6.29994372	     25.21846570	     29.57174974	      6.55175725	     -2.45812478	    -21.54967844	     -6.42436319	     -0.49308897	      5.73061475	      7.88242844	     -9.75595473	     14.61950059
      4.32500000	     -9.67383548	      9.47528941	    -10.51771464	     -2.08488381	     -0.03222624	      0.43413018	      7.46486873	     -8.99488350	      6.58411129	    -48.39569661	    -22.05942480	      4.40981560	     24.20887790	     29.30727408	      7.12168129	     -2.28344803	    -21.69321798	     -5.90615778	     -0.57620508	      5.72696810	      7.92829121	    -10.19640895	     14.43374031
      4.33000000	     -9.73712297	      9.80151456	    -10.25820466	     -2.07841974	     -0.03230557	      0.43372426	      8.65864023	     -9.24929053	      6.33171427	    -50.51182102	    -22.85426135	      2.28023142	     22.91106435	     29.03780132	      7.68247720	     -2.12726340	    -21.79584721	     -5.39429897	     -0.62084649	      5.74840001	      7.97223527	    -10.61199309	     14.14010091
      4.33500000	     -9.69102369	     10.12357008	    -10.07756201	     -2.07196484	     -0.03216976	      0.43333605	      9.73446529	     -9.51811641	      6.14942243	    -52.49766991	    -23.63210664	     -0.18982642	     21.71872241	     28.58270216	      8.25026065	     -1.92448734	    -21.76610780	     -5.01335315	     -0.84351012	      5.71167376	      7.91132645	    -11.01812736	     13.93958021
      4.34000000	     -9.66290449	     10.39180579	     -9.85967493	     -2.06550918	     -0.03199527	      0.43287231	     10.78868967	     -9.73446912	      5.93453240	    -54.37767318	    -24.29120248	     -2.84062437	     20.37444518	     28.11716945	      8.77472719	     -1.72329934	    -21.70130022	     -4.63604244	     -1.03763038	      5.70344960	      7.85210193	    -11.35731422	     13.63530339
      4.34500000	     -9.63538487	     10.59433686	     -9.62634335	     -2.05910900	     -0.03172821	      0.43235626	     11.81625115	     -9.88703009	      5.70920170	    -56.14800881	    -24.89104767	     -5.54466583	     18.90569620	     27.61760331	      9.24264255	     -1.43192950	    -21.60325951	     -4.26944952	     -1.17839398	      5.70914606	      7.76812644	    -11.62228346	     13.33793005
      4.35000000	     -9.59177614	     10.74193338	     -9.40253850	     -2.05271414	     -0.03134837	      0.43180951	     12.79044138	     -9.98648188	      5.49956049	    -57.77795526	    -25.40332468	     -8.24246109	     17.43448095	     27.06753729	      9.65585146	     -1.14573891	    -21.46472554	     -3.92600618	     -1.33547134	      5.68979711	      7.65964125	    -11.81951650	     13.00141733
